<?xml version="1.0" encoding="UTF-8" standalone="no"?>
<svg
   version="1.1"
   width="917.60498"
   height="261.50223"
   style="clip-rule:evenodd;fill-rule:evenodd;image-rendering:optimizeQuality;shape-rendering:geometricPrecision;text-rendering:geometricPrecision"
   id="svg116"
   sodipodi:docname="luyen_de_logo_white.svg"
   inkscape:version="1.4 (86a8ad7, 2024-10-11)"
   xmlns:inkscape="http://www.inkscape.org/namespaces/inkscape"
   xmlns:sodipodi="http://sodipodi.sourceforge.net/DTD/sodipodi-0.dtd"
   xmlns="http://www.w3.org/2000/svg"
   xmlns:svg="http://www.w3.org/2000/svg">
  <defs
     id="defs116" />
  <sodipodi:namedview
     id="namedview116"
     pagecolor="#ffffff"
     bordercolor="#000000"
     borderopacity="0.25"
     inkscape:showpageshadow="2"
     inkscape:pageopacity="0.0"
     inkscape:pagecheckerboard="0"
     inkscape:deskcolor="#d1d1d1"
     inkscape:zoom="0.50754247"
     inkscape:cx="504.39129"
     inkscape:cy="129.05324"
     inkscape:window-width="1920"
     inkscape:window-height="974"
     inkscape:window-x="-11"
     inkscape:window-y="-11"
     inkscape:window-maximized="1"
     inkscape:current-layer="svg116" />
  <g
     id="g1"
     transform="translate(-50.727241,-385.67458)">
    <path
       style="opacity:1;stroke-width:0.478372"
       fill="#fefefe"
       d="m 50.727241,385.67458 c 305.868019,0 611.736939,0 917.604959,0 0,87.16733 0,174.33491 0,261.50223 -305.86802,0 -611.73694,0 -917.604959,0 0,-87.16732 0,-174.3349 0,-261.50223 z"
       id="path1" />
  </g>
  <g
     id="g2"
     transform="translate(-50.727241,-385.67458)">
    <path
       style="opacity:1"
       fill="#7e9fc4"
       d="m 930.5,414.5 c -6.854,-0.324 -13.521,0.009 -20,1 -0.543,-0.06 -0.876,-0.393 -1,-1 7.156,-1.319 14.156,-1.319 21,0 z"
       id="path2" />
  </g>
  <g
     id="g3"
     transform="translate(-50.727241,-385.67458)">
    <path
       style="opacity:1"
       fill="#02469f"
       d="m 127.5,425.5 c 2.39,1.391 4.057,3.391 5,6 1.708,4.072 4.374,7.405 8,10 4.719,4.444 8.719,9.444 12,15 -0.493,2.306 -0.826,4.639 -1,7 5.758,-1.561 6.425,-0.227 2,4 3.217,1.598 6.384,3.931 9.5,7 -0.135,1.925 -0.302,3.925 -0.5,6 -8.418,7.714 -17.418,14.714 -27,21 -7.077,2.603 -14.41,3.603 -22,3 -7.055,-2.695 -13.7216,-6.195 -20,-10.5 -3.9784,-3.136 -6.9784,-6.969 -9,-11.5 -0.5169,-3.082 -1.3502,-6.082 -2.5,-9 -0.6805,-14.348 -0.5138,-28.681 0.5,-43 1.4305,-0.079 2.7638,0.254 4,1 1.2825,-2.872 1.2825,-5.705 0,-8.5 1.6835,-1.209 3.0168,-2.709 4,-4.5 3.1808,0.498 5.8475,-0.335 8,-2.5 5.174,-1.282 9.84,-0.449 14,2.5 3.624,-0.83 6.624,0.337 9,3.5 -0.333,0.333 -0.667,0.667 -1,1 2.56,0.384 4.894,1.217 7,2.5 z"
       id="path3" />
  </g>
  <g
     id="g4"
     transform="translate(-50.727241,-385.67458)">
    <path
       style="opacity:1"
       fill="#204b8f"
       d="m 127.5,425.5 c -2.106,-1.283 -4.44,-2.116 -7,-2.5 0.333,-0.333 0.667,-0.667 1,-1 -2.376,-3.163 -5.376,-4.33 -9,-3.5 -4.16,-2.949 -8.826,-3.782 -14,-2.5 -2.1525,2.165 -4.8192,2.998 -8,2.5 6.3459,-5.253 13.679,-7.087 22,-5.5 6.26,2.777 11.26,6.944 15,12.5 z"
       id="path4" />
  </g>
  <g
     id="g5"
     transform="translate(-50.727241,-385.67458)">
    <path
       style="opacity:1"
       fill="#054499"
       d="m 930.5,415.5 c 2.709,2.708 5.042,5.708 7,9 0.039,1.083 0.373,2.083 1,3 -3.959,1.16 -7.959,1.327 -12,0.5 -3.333,-3 -6.667,-6 -10,-9 2.501,-1.418 2.168,-2.418 -1,-3 4.989,-0.499 9.989,-0.666 15,-0.5 z"
       id="path5" />
  </g>
  <g
     id="g6"
     transform="translate(-50.727241,-385.67458)">
    <path
       style="opacity:1"
       fill="#124286"
       d="m 930.5,414.5 c 0,0.333 0,0.667 0,1 -5.011,-0.166 -10.011,10e-4 -15,0.5 3.168,0.582 3.501,1.582 1,3 3.333,3 6.667,6 10,9 4.041,0.827 8.041,0.66 12,-0.5 -0.627,-0.917 -0.961,-1.917 -1,-3 1.474,0.936 2.474,2.27 3,4 -4.47,0.986 -9.137,1.319 -14,1 -5.655,-4.323 -10.988,-8.99 -16,-14 6.479,-0.991 13.146,-1.324 20,-1 z"
       id="path6" />
  </g>
  <g
     id="g7"
     transform="translate(-50.727241,-385.67458)">
    <path
       style="opacity:1"
       fill="#defcfc"
       d="m 252.5,440.5 c -9.067,-13.85 -20.734,-16.516 -35,-8 -0.011,-3.852 1.989,-5.685 6,-5.5 9.694,-1.596 18.694,0.071 27,5 -0.333,0.333 -0.667,0.667 -1,1 1.977,2.043 2.977,4.543 3,7.5 z"
       id="path7" />
  </g>
  <g
     id="g8"
     transform="translate(-50.727241,-385.67458)">
    <path
       style="opacity:1"
       fill="#274f7b"
       d="m 940.5,428.5 c 0.667,0 1,0.333 1,1 -4.47,0.986 -9.137,1.319 -14,1 -0.667,0 -1,-0.333 -1,-1 4.863,0.319 9.53,-0.014 14,-1 z"
       id="path8" />
  </g>
  <g
     id="g9"
     transform="translate(-50.727241,-385.67458)">
    <path
       style="opacity:1"
       fill="#bfdbf1"
       d="m 941.5,429.5 c 0.543,0.06 0.876,0.393 1,1 -5.152,1.314 -10.152,1.314 -15,0 4.863,0.319 9.53,-0.014 14,-1 z"
       id="path9" />
  </g>
  <g
     id="g10"
     transform="translate(-50.727241,-385.67458)">
    <path
       style="opacity:1"
       fill="#0ac5d0"
       d="m 252.5,440.5 c 1.182,8.309 -0.318,15.975 -4.5,23 -13.333,16.667 -26.667,33.333 -40,50 -1.879,2.027 -3.046,4.36 -3.5,7 -2.556,1.043 -4.723,2.71 -6.5,5 -4.717,5.877 -9.217,11.877 -13.5,18 -5.147,5.629 -9.814,11.629 -14,18 -3.313,2.011 -4.98,4.677 -5,8 -4.376,2.077 -7.376,5.411 -9,10 -7.101,8.002 -14.101,16.169 -21,24.5 -7.9,5.212 -16.567,6.879 -26,5 -5.848,-4.357 -11.5151,-8.857 -17,-13.5 -5.1455,-5.314 -9.3122,-11.314 -12.5,-18 -0.5,-34.665 -0.6667,-69.332 -0.5,-104 0.8724,3.409 2.539,6.409 5,9 2.0216,4.531 5.0216,8.364 9,11.5 6.2784,4.305 12.945,7.805 20,10.5 1.548,1.294 3.548,1.961 6,2 5.955,-0.098 11.288,-1.765 16,-5 9.582,-6.286 18.582,-13.286 27,-21 2.414,-1.411 4.081,-3.411 5,-6 1.755,-0.572 3.422,-1.406 5,-2.5 15.193,-13.032 30.193,-26.199 45,-39.5 14.266,-8.516 25.933,-5.85 35,8 z"
       id="path10" />
  </g>
  <g
     id="g11"
     transform="translate(-50.727241,-385.67458)">
    <path
       style="opacity:1"
       fill="#0e4393"
       d="m 592.5,442.5 c -4.471,0.589 -8.471,-0.077 -12,-2 4.518,-4.679 9.518,-8.846 15,-12.5 5,-0.667 10,-0.667 15,0 5.034,4.699 9.7,9.699 14,15 -9.133,2.41 -16.799,0.243 -23,-6.5 -3.018,2.026 -6.018,4.026 -9,6 z"
       id="path11" />
  </g>
  <g
     id="g12"
     transform="translate(-50.727241,-385.67458)">
    <path
       style="opacity:1"
       fill="#16458e"
       d="m 901.5,428.5 c -0.79,1.294 -1.79,2.461 -3,3.5 1.667,1.5 3.333,3 5,4.5 1.538,-3.75 3.205,-3.75 5,0 -3.941,1.64 -7.608,3.806 -11,6.5 -5.033,0.829 -10.033,0.662 -15,-0.5 5.859,-5.417 12.192,-10.084 19,-14 z"
       id="path12" />
  </g>
  <g
     id="g13"
     transform="translate(-50.727241,-385.67458)">
    <path
       style="opacity:1"
       fill="#054194"
       d="m 927.5,440.5 c -1.548,1.294 -3.548,1.961 -6,2 -4.572,0.593 -7.572,-1.24 -9,-5.5 -1.293,-0.49 -2.627,-0.657 -4,-0.5 -1.795,-3.75 -3.462,-3.75 -5,0 -1.667,-1.5 -3.333,-3 -5,-4.5 1.21,-1.039 2.21,-2.206 3,-3.5 4.816,-1.15 9.816,-1.316 15,-0.5 3.503,4.335 7.17,8.501 11,12.5 z"
       id="path13" />
  </g>
  <g
     id="g14"
     transform="translate(-50.727241,-385.67458)">
    <path
       style="opacity:1"
       fill="#2b548a"
       d="m 132.5,431.5 c 3.145,2.96 5.812,6.293 8,10 -3.626,-2.595 -6.292,-5.928 -8,-10 z"
       id="path14" />
  </g>
  <g
     id="g15"
     transform="translate(-50.727241,-385.67458)">
    <path
       style="opacity:1"
       fill="#234779"
       d="m 580.5,440.5 c 3.529,1.923 7.529,2.589 12,2 -5.18,1.315 -10.514,1.315 -16,0 1.077,-1.205 2.41,-1.872 4,-2 z"
       id="path15" />
  </g>
  <g
     id="g16"
     transform="translate(-50.727241,-385.67458)">
    <path
       style="opacity:1"
       fill="#284a80"
       d="m 908.5,436.5 c 1.373,-0.157 2.707,0.01 4,0.5 1.428,4.26 4.428,6.093 9,5.5 2.452,-0.039 4.452,-0.706 6,-2 1.143,0.408 2.143,1.075 3,2 -5.302,1.163 -10.636,1.329 -16,0.5 -2.206,-2.037 -4.206,-4.203 -6,-6.5 z"
       id="path16" />
  </g>
  <g
     id="g17"
     transform="translate(-50.727241,-385.67458)">
    <path
       style="opacity:1"
       fill="#6f8fb2"
       d="m 440.5,451.5 c 6.479,-0.991 13.146,-1.324 20,-1 0.284,1.915 -0.049,3.581 -1,5 0,-1.333 0,-2.667 0,-4 -6.333,0 -12.667,0 -19,0 z"
       id="path17" />
  </g>
  <g
     id="g18"
     transform="translate(-50.727241,-385.67458)">
    <path
       style="opacity:1"
       fill="#6889ac"
       d="m 489.5,451.5 c -7.852,-0.325 -15.518,0.008 -23,1 -0.543,-0.06 -0.876,-0.393 -1,-1 8.157,-1.32 16.157,-1.32 24,0 z"
       id="path18" />
  </g>
  <g
     id="g19"
     transform="translate(-50.727241,-385.67458)">
    <path
       style="opacity:1"
       fill="#7390b3"
       d="m 530.5,451.5 c 8.176,-1.321 16.509,-1.321 25,0 -0.124,0.607 -0.457,0.94 -1,1 -7.816,-0.992 -15.816,-1.326 -24,-1 z"
       id="path19" />
  </g>
  <g
     id="g20"
     transform="translate(-50.727241,-385.67458)">
    <path
       style="opacity:1"
       fill="#6e8fb4"
       d="m 562.5,451.5 c 23.828,-0.998 47.828,-1.331 72,-1 0.237,1.291 -0.096,2.291 -1,3 -23.31,-1.99 -46.976,-2.657 -71,-2 z"
       id="path20" />
  </g>
  <g
     id="g21"
     transform="translate(-50.727241,-385.67458)">
    <path
       style="opacity:1"
       fill="#718fb0"
       d="m 711.5,451.5 c 6.479,-0.991 13.146,-1.324 20,-1 0.237,1.291 -0.096,2.291 -1,3 -5.912,-1.956 -12.245,-2.623 -19,-2 z"
       id="path21" />
  </g>
  <g
     id="g22"
     transform="translate(-50.727241,-385.67458)">
    <path
       style="opacity:1"
       fill="#6688af"
       d="m 869.5,451.5 c 23.494,-0.998 47.161,-1.331 71,-1 0.268,1.599 -0.066,2.932 -1,4 0,-1 0,-2 0,-3 -23.333,0 -46.667,0 -70,0 z"
       id="path22" />
  </g>
  <g
     id="g23"
     transform="translate(-50.727241,-385.67458)">
    <path
       style="opacity:1"
       fill="#204891"
       d="m 397.5,454.5 c -1.424,2.015 -2.09,4.348 -2,7 -0.294,8.094 -1.96,15.761 -5,23 -0.079,-4.45 0.588,-8.783 2,-13 -0.831,-4.966 -1.164,-9.966 -1,-15 -3.636,-0.094 -7.136,-0.761 -10.5,-2 -2.488,3.684 -3.988,7.851 -4.5,12.5 -0.184,1.376 -0.851,2.209 -2,2.5 0.786,-6.308 2.119,-12.475 4,-18.5 6.325,-0.5 12.658,-0.666 19,-0.5 0,1.333 0,2.667 0,4 z"
       id="path23" />
  </g>
  <g
     id="g24"
     transform="translate(-50.727241,-385.67458)">
    <path
       style="opacity:1"
       fill="#10408d"
       d="m 440.5,451.5 c 6.333,0 12.667,0 19,0 0,1.333 0,2.667 0,4 -1.381,8.172 -3.047,16.172 -5,24 0.26,-7.722 0.927,-15.389 2,-23 -4.729,-0.197 -9.563,-0.864 -14.5,-2 -1.161,3.889 -2.161,7.889 -3,12 -0.383,0.556 -0.883,0.889 -1.5,1 0.744,-5.385 1.744,-10.718 3,-16 z"
       id="path24" />
  </g>
  <g
     id="g25"
     transform="translate(-50.727241,-385.67458)">
    <path
       style="opacity:1"
       fill="#0d4891"
       d="m 90.5,418.5 c -0.9832,1.791 -2.3165,3.291 -4,4.5 1.2825,2.795 1.2825,5.628 0,8.5 -1.2362,-0.746 -2.5695,-1.079 -4,-1 -1.0138,14.319 -1.1805,28.652 -0.5,43 1.1498,2.918 1.9831,5.918 2.5,9 -2.461,-2.591 -4.1276,-5.591 -5,-9 0,-12 0,-24 0,-36 0.3613,-8.406 4.0279,-14.74 11,-19 z"
       id="path25" />
  </g>
  <g
     id="g26"
     transform="translate(-50.727241,-385.67458)">
    <path
       style="opacity:1"
       fill="#05479e"
       d="m 390.5,484.5 c -0.667,4.66 -0.833,9.326 -0.5,14 0.935,2.602 2.768,4.102 5.5,4.5 9.333,0.667 18.667,0.667 28,0 3.823,-1.324 6.489,-3.824 8,-7.5 0.901,-0.79 1.568,-1.79 2,-3 2.706,-7.614 4.04,-15.614 4,-24 0,-0.333 0,-0.667 0,-1 0.617,-0.111 1.117,-0.444 1.5,-1 0.839,-4.111 1.839,-8.111 3,-12 4.937,1.136 9.771,1.803 14.5,2 -1.073,7.611 -1.74,15.278 -2,23 0,0.667 0,1.333 0,2 -1.225,0.652 -1.892,1.819 -2,3.5 -1.294,6.595 -2.627,13.095 -4,19.5 -2.671,8.185 -8.338,12.852 -17,14 -16.988,0.929 -33.988,0.929 -51,0 -3.59,-0.942 -6.257,-2.942 -8,-6 -1.256,-3.868 -1.923,-7.868 -2,-12 0.499,-4.659 0.833,-9.326 1,-14 0.621,-5.766 1.621,-11.433 3,-17 1.149,-0.291 1.816,-1.124 2,-2.5 0.512,-4.649 2.012,-8.816 4.5,-12.5 3.364,1.239 6.864,1.906 10.5,2 -0.164,5.034 0.169,10.034 1,15 -1.412,4.217 -2.079,8.55 -2,13 z"
       id="path26" />
  </g>
  <g
     id="g27"
     transform="translate(-50.727241,-385.67458)">
    <path
       style="opacity:1"
       fill="#05469c"
       d="m 677.5,455.5 c 8.226,14.78 16.226,29.78 24,45 0.853,-2.978 1.519,-5.978 2,-9 1,0 2,0 3,0 0.267,-6.338 0.6,-12.671 1,-19 0,-0.333 0,-0.667 0,-1 1.29,-0.558 2.123,-1.558 2.5,-3 0.517,-5.398 1.351,-10.731 2.5,-16 5.333,0 10.667,0 16,0 -1.345,10.099 -2.678,20.099 -4,30 -1.538,9.689 -3.205,19.356 -5,29 -1.844,1.779 -2.51,4.112 -2,7 -10.052,0.284 -20.052,-0.05 -30,-1 -3.525,-5.717 -6.525,-11.717 -9,-18 -1.883,-3.777 -3.216,-7.777 -4,-12 -1,0 -2,0 -3,0 -2.58,-6.168 -5.914,-11.835 -10,-17 -2.372,10.94 -4.372,21.94 -6,33 -1.424,2.015 -2.09,4.348 -2,7 -0.333,2 -0.667,4 -1,6 -5.708,1.886 -11.708,2.553 -18,2 0,-3.667 0,-7.333 0,-11 0,-0.667 0,-1.333 0,-2 1.312,-2.196 2.479,-4.53 3.5,-7 0.333,1.667 0.667,3.333 1,5 0.093,-4.341 0.093,-8.674 0,-13 0.915,-4.362 3.082,-7.029 6.5,-8 -2.508,-1.772 -3.508,-4.272 -3,-7.5 1.195,-7.53 2.528,-15.03 4,-22.5 9.339,-0.166 18.673,0 28,0.5 0.578,1.417 1.578,2.25 3,2.5 z"
       id="path27" />
  </g>
  <g
     id="g28"
     transform="translate(-50.727241,-385.67458)">
    <path
       style="opacity:1"
       fill="#06469d"
       d="m 847.5,456.5 c 4.555,3.284 6.555,7.784 6,13.5 -0.725,8.961 -2.225,17.794 -4.5,26.5 -1.704,7.591 -5.537,13.758 -11.5,18.5 -1.525,1.009 -3.192,1.509 -5,1.5 -3.022,0.304 -6.022,0.804 -9,1.5 -20.331,0.5 -40.664,0.667 -61,0.5 0.772,-3.952 1.105,-7.952 1,-12 0,-0.667 0,-1.333 0,-2 0.815,-0.929 1.648,-1.929 2.5,-3 0.499,-3.652 0.665,-7.318 0.5,-11 -5.664,1.001 -7.998,-1.333 -7,-7 -0.239,-1.967 0.094,-3.801 1,-5.5 2.982,-0.498 5.982,-0.665 9,-0.5 1.473,-2.083 2.64,-4.416 3.5,-7 0.179,3.053 0.679,6.053 1.5,9 0.688,-5.552 1.354,-11.052 2,-16.5 -2.328,-2.856 -2.661,-6.023 -1,-9.5 19.658,-1.166 39.325,-1.333 59,-0.5 4.443,0.872 8.776,2.038 13,3.5 z"
       id="path28" />
  </g>
  <g
     id="g29"
     transform="translate(-50.727241,-385.67458)">
    <path
       style="opacity:1"
       fill="#03459c"
       d="m 885.5,466.5 c -0.333,2.667 -0.667,5.333 -1,8 -0.934,1.068 -1.268,2.401 -1,4 15.667,0 31.333,0 47,0 0,1.333 0,2.667 0,4 0,1 0,2 0,3 -1.78,1.49 -2.446,3.49 -2,6 -16.175,-0.33 -32.175,0.004 -48,1 -0.508,3.697 -1.174,7.364 -2,11 17.191,0.338 34.191,1.338 51,3 0.284,1.915 -0.049,3.581 -1,5 -2.318,1.685 -3.318,4.019 -3,7 -22.667,0 -45.333,0 -68,0 0.58,-4.31 0.914,-8.643 1,-13 2.622,-15.773 5.622,-31.44 9,-47 0.667,0 1,-0.333 1,-1 1.382,-1.301 3.048,-2.134 5,-2.5 -1.124,-0.249 -2.124,-0.749 -3,-1.5 22.667,-1.333 45.333,-1.333 68,0 -0.876,0.751 -1.876,1.251 -3,1.5 1.158,1.009 1.825,2.342 2,4 -0.288,2.187 -0.622,4.354 -1,6.5 -17.175,-0.33 -34.175,0.003 -51,1 z"
       id="path29" />
  </g>
  <g
     id="g30"
     transform="translate(-50.727241,-385.67458)">
    <path
       style="opacity:1"
       fill="#03469d"
       d="m 319.5,471.5 c -1,0 -2,0 -3,0 -0.955,11.019 -2.288,22.019 -4,33 15.333,0 30.667,0 46,0 0,1.333 0,2.667 0,4 0,1.667 0,3.333 0,5 -1.713,1.135 -2.38,2.802 -2,5 -21.333,0 -42.667,0 -64,0 1.388,-6.211 2.055,-12.545 2,-19 0,-0.333 0,-0.667 0,-1 3.255,-7.825 4.921,-16.158 5,-25 0.819,-7.097 2.153,-14.097 4,-21 6.667,-1.333 13.333,-1.333 20,0 -1.334,6.339 -2.668,12.672 -4,19 z"
       id="path30" />
  </g>
  <g
     id="g31"
     transform="translate(-50.727241,-385.67458)">
    <path
       style="opacity:1"
       fill="#06449a"
       d="m 530.5,451.5 c 8.184,-0.326 16.184,0.008 24,1 -13.686,14.186 -27.519,28.186 -41.5,42 -1.345,7.711 -2.845,15.378 -4.5,23 -6.244,0.958 -12.577,1.291 -19,1 0.928,-7.107 1.928,-14.107 3,-21 0.157,-1.373 -0.01,-2.707 -0.5,-4 -7.691,-11.388 -14.857,-23.055 -21.5,-35 0.172,-1.992 -0.495,-3.658 -2,-5 6.642,-1.164 13.308,-1.331 20,-0.5 1.687,1.913 2.187,4.08 1.5,6.5 -0.333,-0.333 -0.667,-0.667 -1,-1 -0.667,1.333 -0.667,2.667 0,4 0.333,-0.333 0.667,-0.667 1,-1 0.333,1 0.667,2 1,3 1.049,-1.017 2.216,-1.184 3.5,-0.5 -0.667,0.333 -1.333,0.667 -2,1 3.53,0.672 4.863,2.838 4,6.5 1.716,0.129 3.383,0.462 5,1 1.279,1.623 2.613,3.29 4,5 0.333,-0.167 0.667,-0.333 1,-0.5 7.839,-8.671 15.839,-17.171 24,-25.5 z"
       id="path31" />
  </g>
  <g
     id="g32"
     transform="translate(-50.727241,-385.67458)">
    <path
       style="opacity:1"
       fill="#06459c"
       d="m 562.5,451.5 c 24.024,-0.657 47.69,0.01 71,2 -0.51,3.039 -1.177,6.039 -2,9 -0.904,0.709 -1.237,1.709 -1,3 -17.175,-0.33 -34.175,0.003 -51,1 -1.142,3.571 -1.809,7.238 -2,11 15.158,0.996 30.491,1.33 46,1 0,1.667 0,3.333 0,5 -0.204,3.018 -0.537,6.018 -1,9 -16.014,-0.333 -32.014,10e-4 -48,1 -0.442,1.239 -1.109,2.239 -2,3 -1.765,2.623 -2.432,5.623 -2,9 16.67,-0.167 33.337,0 50,0.5 -0.667,0.333 -1.333,0.667 -2,1 1.877,3.494 2.544,7.327 2,11.5 -22.676,0.333 -45.343,0 -68,-1 0.667,-0.667 1.333,-1.333 2,-2 -1.831,-3.741 -2.497,-7.741 -2,-12 1.596,-2.332 2.762,-4.999 3.5,-8 0.499,-3.986 0.666,-7.986 0.5,-12 1.871,-10.688 3.871,-21.354 6,-32 z"
       id="path32" />
  </g>
  <g
     id="g33"
     transform="translate(-50.727241,-385.67458)">
    <path
       style="opacity:1"
       fill="#476b9d"
       d="m 869.5,451.5 c -0.017,2.065 -0.35,4.065 -1,6 0,0.667 -0.333,1 -1,1 -0.09,-2.652 0.576,-4.985 2,-7 z"
       id="path33" />
  </g>
  <g
     id="g34"
     transform="translate(-50.727241,-385.67458)">
    <path
       style="opacity:1"
       fill="#688bb2"
       d="m 397.5,454.5 c 0.09,2.652 -0.576,4.985 -2,7 -0.09,-2.652 0.576,-4.985 2,-7 z"
       id="path34" />
  </g>
  <g
     id="g35"
     transform="translate(-50.727241,-385.67458)">
    <path
       style="opacity:1"
       fill="#16468e"
       d="m 489.5,451.5 c 4.249,6.829 8.249,13.829 12,21 -1.617,-0.538 -3.284,-0.871 -5,-1 0.863,-3.662 -0.47,-5.828 -4,-6.5 0.667,-0.333 1.333,-0.667 2,-1 -1.284,-0.684 -2.451,-0.517 -3.5,0.5 -0.333,-1 -0.667,-2 -1,-3 -0.333,0.333 -0.667,0.667 -1,1 -0.667,-1.333 -0.667,-2.667 0,-4 0.333,0.333 0.667,0.667 1,1 0.687,-2.42 0.187,-4.587 -1.5,-6.5 -6.692,-0.831 -13.358,-0.664 -20,0.5 1.505,1.342 2.172,3.008 2,5 -1.816,-1.618 -3.149,-3.618 -4,-6 7.482,-0.992 15.148,-1.325 23,-1 z"
       id="path35" />
  </g>
  <g
     id="g36"
     transform="translate(-50.727241,-385.67458)">
    <path
       style="opacity:1"
       fill="#214888"
       d="m 711.5,451.5 c 6.755,-0.623 13.088,0.044 19,2 -1.818,9.742 -3.818,19.409 -6,29 1.322,-9.901 2.655,-19.901 4,-30 -5.333,0 -10.667,0 -16,0 -1.149,5.269 -1.983,10.602 -2.5,16 -0.377,1.442 -1.21,2.442 -2.5,3 0.972,-6.863 2.306,-13.529 4,-20 z"
       id="path36" />
  </g>
  <g
     id="g37"
     transform="translate(-50.727241,-385.67458)">
    <path
       style="opacity:1"
       fill="#2e5096"
       d="m 847.5,456.5 c -4.224,-1.462 -8.557,-2.628 -13,-3.5 -19.675,-0.833 -39.342,-0.666 -59,0.5 -1.661,3.477 -1.328,6.644 1,9.5 -0.646,5.448 -1.312,10.948 -2,16.5 -0.821,-2.947 -1.321,-5.947 -1.5,-9 -0.86,2.584 -2.027,4.917 -3.5,7 1.079,-8.975 2.745,-17.809 5,-26.5 20,-0.667 40,-0.667 60,0 4.906,0.795 9.24,2.628 13,5.5 z"
       id="path37" />
  </g>
  <g
     id="g38"
     transform="translate(-50.727241,-385.67458)">
    <path
       style="opacity:1"
       fill="#0f3c7e"
       d="m 631.5,462.5 c 0,1.333 0,2.667 0,4 -17.333,0 -34.667,0 -52,0 16.825,-0.997 33.825,-1.33 51,-1 -0.237,-1.291 0.096,-2.291 1,-3 z"
       id="path38" />
  </g>
  <g
     id="g39"
     transform="translate(-50.727241,-385.67458)">
    <path
       style="opacity:1"
       fill="#0d3c80"
       d="m 869.5,451.5 c 23.333,0 46.667,0 70,0 0,1 0,2 0,3 -0.575,4.023 -1.241,8.023 -2,12 -17.333,0 -34.667,0 -52,0 16.825,-0.997 33.825,-1.33 51,-1 0.378,-2.146 0.712,-4.313 1,-6.5 -0.175,-1.658 -0.842,-2.991 -2,-4 1.124,-0.249 2.124,-0.749 3,-1.5 -22.667,-1.333 -45.333,-1.333 -68,0 0.876,0.751 1.876,1.251 3,1.5 -1.952,0.366 -3.618,1.199 -5,2.5 0.65,-1.935 0.983,-3.935 1,-6 z"
       id="path39" />
  </g>
  <g
     id="g40"
     transform="translate(-50.727241,-385.67458)">
    <path
       style="opacity:1"
       fill="#2b528d"
       d="m 790.5,467.5 c 6.325,-0.666 12.825,-1 19.5,-1 6.869,0.003 13.369,0.67 19.5,2 -0.667,0 -1.333,0 -2,0 -12.155,-0.995 -24.489,-1.329 -37,-1 z"
       id="path40" />
  </g>
  <g
     id="g41"
     transform="translate(-50.727241,-385.67458)">
    <path
       style="opacity:1"
       fill="#d9e9fb"
       d="m 790.5,467.5 c 12.511,-0.329 24.845,0.005 37,1 -12.413,-0.313 -24.747,0.021 -37,1 0,-0.667 0,-1.333 0,-2 z"
       id="path41" />
  </g>
  <g
     id="g42"
     transform="translate(-50.727241,-385.67458)">
    <path
       style="opacity:1"
       fill="#f9fcfb"
       d="m 827.5,468.5 c 0.667,0 1.333,0 2,0 2.39,1.876 3.39,4.376 3,7.5 -0.604,4.519 -1.271,9.019 -2,13.5 -0.647,7.98 -4.98,12.313 -13,13 -11.384,0.644 -22.384,-0.023 -33,-2 0.333,-2.667 0.667,-5.333 1,-8 6.667,0 13.333,0 20,0 -0.04,-3.381 0.293,-6.714 1,-10 0.951,-1.419 1.284,-3.085 1,-5 -6.426,0.62 -12.426,-0.047 -18,-2 -0.175,-2.121 0.159,-4.121 1,-6 12.253,-0.979 24.587,-1.313 37,-1 z"
       id="path42" />
  </g>
  <g
     id="g43"
     transform="translate(-50.727241,-385.67458)">
    <path
       style="opacity:1"
       fill="#104893"
       d="m 152.5,456.5 c 5.724,5.391 10.724,11.391 15,18 -0.919,2.589 -2.586,4.589 -5,6 0.198,-2.075 0.365,-4.075 0.5,-6 -3.116,-3.069 -6.283,-5.402 -9.5,-7 4.425,-4.227 3.758,-5.561 -2,-4 0.174,-2.361 0.507,-4.694 1,-7 z"
       id="path43" />
  </g>
  <g
     id="g44"
     transform="translate(-50.727241,-385.67458)">
    <path
       style="opacity:1"
       fill="#c8dcf0"
       d="m 885.5,466.5 c 17.333,0 34.667,0 52,0 -16.825,0.997 -33.825,1.33 -51,1 0.282,2.847 0.282,5.513 0,8 15.161,0.667 30.161,1.333 45,2 -15.667,0 -31.333,0 -47,0 0,-1 0,-2 0,-3 0.333,-2.667 0.667,-5.333 1,-8 z"
       id="path44" />
  </g>
  <g
     id="g45"
     transform="translate(-50.727241,-385.67458)">
    <path
       style="opacity:1"
       fill="#2e5687"
       d="m 577.5,477.5 c 15.667,0 31.333,0 47,0 0.295,2.235 -0.039,4.235 -1,6 0,-1.667 0,-3.333 0,-5 -15.509,0.33 -30.842,-0.004 -46,-1 z"
       id="path45" />
  </g>
  <g
     id="g46"
     transform="translate(-50.727241,-385.67458)">
    <path
       style="opacity:1"
       fill="#587aa5"
       d="m 789.5,475.5 c 5.574,1.953 11.574,2.62 18,2 0.284,1.915 -0.049,3.581 -1,5 0,-1.333 0,-2.667 0,-4 -6,0 -12,0 -18,0 -0.237,-1.291 0.096,-2.291 1,-3 z"
       id="path46" />
  </g>
  <g
     id="g47"
     transform="translate(-50.727241,-385.67458)">
    <path
       style="opacity:1"
       fill="#2e5688"
       d="m 884.5,474.5 c 0,1 0,2 0,3 15.667,0 31.333,0 47,0 0.284,1.915 -0.049,3.581 -1,5 0,-1.333 0,-2.667 0,-4 -15.667,0 -31.333,0 -47,0 -0.268,-1.599 0.066,-2.932 1,-4 z"
       id="path47" />
  </g>
  <g
     id="g48"
     transform="translate(-50.727241,-385.67458)">
    <path
       style="opacity:1"
       fill="#305394"
       d="m 677.5,455.5 c -1.422,-0.25 -2.422,-1.083 -3,-2.5 -9.327,-0.5 -18.661,-0.666 -28,-0.5 -1.472,7.47 -2.805,14.97 -4,22.5 -0.508,3.228 0.492,5.728 3,7.5 -3.418,0.971 -5.585,3.638 -6.5,8 0.093,4.326 0.093,8.659 0,13 -0.333,-1.667 -0.667,-3.333 -1,-5 -1.021,2.47 -2.188,4.804 -3.5,7 3.492,-17.973 6.992,-35.973 10.5,-54 10.09,-1.152 20.256,-1.319 30.5,-0.5 1.082,1.33 1.749,2.83 2,4.5 z"
       id="path48" />
  </g>
  <g
     id="g49"
     transform="translate(-50.727241,-385.67458)">
    <path
       style="opacity:1"
       fill="#154893"
       d="m 830.5,489.5 c 0.729,-4.481 1.396,-8.981 2,-13.5 0.39,-3.124 -0.61,-5.624 -3,-7.5 0.996,-0.086 1.829,0.248 2.5,1 2.05,-2.382 3.55,-1.882 4.5,1.5 -1.143,2.342 -1.81,4.842 -2,7.5 0.09,2.464 0.757,4.63 2,6.5 -1.595,2.102 -3.595,3.602 -6,4.5 z"
       id="path49" />
  </g>
  <g
     id="g50"
     transform="translate(-50.727241,-385.67458)">
    <path
       style="opacity:1"
       fill="#2e538f"
       d="m 299.5,473.5 c -0.079,8.842 -1.745,17.175 -5,25 1.049,-8.579 2.716,-16.912 5,-25 z"
       id="path50" />
  </g>
  <g
     id="g51"
     transform="translate(-50.727241,-385.67458)">
    <path
       style="opacity:1"
       fill="#1c498d"
       d="m 437.5,468.5 c 0.04,8.386 -1.294,16.386 -4,24 0,-1.333 0,-2.667 0,-4 0.919,-6.873 2.253,-13.54 4,-20 z"
       id="path51" />
  </g>
  <g
     id="g52"
     transform="translate(-50.727241,-385.67458)">
    <path
       style="opacity:1"
       fill="#285095"
       d="m 707.5,472.5 c -0.4,6.329 -0.733,12.662 -1,19 -1,0 -2,0 -3,0 1.099,-6.504 2.433,-12.837 4,-19 z"
       id="path52" />
  </g>
  <g
     id="g53"
     transform="translate(-50.727241,-385.67458)">
    <path
       style="opacity:1"
       fill="#2c508f"
       d="m 759.5,483.5 c -0.998,5.667 1.336,8.001 7,7 0.165,3.682 -10e-4,7.348 -0.5,11 -0.852,1.071 -1.685,2.071 -2.5,3 0.667,-4 1.333,-8 2,-12 -2.667,0 -5.333,0 -8,0 -0.08,-3.281 0.587,-6.281 2,-9 z"
       id="path53" />
  </g>
  <g
     id="g54"
     transform="translate(-50.727241,-385.67458)">
    <path
       style="opacity:1"
       fill="#446697"
       d="m 930.5,485.5 c -0.493,2.306 -0.826,4.639 -1,7 -16.333,0 -32.667,0 -49,0 15.825,-0.996 31.825,-1.33 48,-1 -0.446,-2.51 0.22,-4.51 2,-6 z"
       id="path54" />
  </g>
  <g
     id="g55"
     transform="translate(-50.727241,-385.67458)">
    <path
       style="opacity:1"
       fill="#5c80ad"
       d="m 433.5,488.5 c 0,1.333 0,2.667 0,4 -0.432,1.21 -1.099,2.21 -2,3 0.221,-2.567 0.888,-4.901 2,-7 z"
       id="path55" />
  </g>
  <g
     id="g56"
     transform="translate(-50.727241,-385.67458)">
    <path
       style="opacity:1"
       fill="#1e4b8b"
       d="m 454.5,481.5 c -1.003,8.049 -3.003,15.715 -6,23 1.373,-6.405 2.706,-12.905 4,-19.5 0.108,-1.681 0.775,-2.848 2,-3.5 z"
       id="path56" />
  </g>
  <g
     id="g57"
     transform="translate(-50.727241,-385.67458)">
    <path
       style="opacity:1"
       fill="#224d8d"
       d="m 556.5,483.5 c 0.166,4.014 -10e-4,8.014 -0.5,12 -0.738,3.001 -1.904,5.668 -3.5,8 0.919,-6.873 2.253,-13.54 4,-20 z"
       id="path57" />
  </g>
  <g
     id="g58"
     transform="translate(-50.727241,-385.67458)">
    <path
       style="opacity:1"
       fill="#254d88"
       d="m 671.5,487.5 c 1,0 2,0 3,0 0.784,4.223 2.117,8.223 4,12 -2.823,-3.636 -5.156,-7.636 -7,-12 z"
       id="path58" />
  </g>
  <g
     id="g59"
     transform="translate(-50.727241,-385.67458)">
    <path
       style="opacity:1"
       fill="#1f4c8b"
       d="m 371.5,486.5 c -0.167,4.674 -0.501,9.341 -1,14 0.077,4.132 0.744,8.132 2,12 -1.058,-1.1 -1.892,-2.434 -2.5,-4 -0.903,-7.573 -0.403,-14.906 1.5,-22 z"
       id="path59" />
  </g>
  <g
     id="g60"
     transform="translate(-50.727241,-385.67458)">
    <path
       style="opacity:1"
       fill="#5d7ea6"
       d="m 314.5,500.5 c 14.964,1.984 30.297,2.651 46,2 0.237,1.291 -0.096,2.291 -1,3 -14.964,-1.984 -30.297,-2.651 -46,-2 -0.237,-1.291 0.096,-2.291 1,-3 z"
       id="path60" />
  </g>
  <g
     id="g61"
     transform="translate(-50.727241,-385.67458)">
    <path
       style="opacity:1"
       fill="#82a0c4"
       d="m 784.5,500.5 c 10.616,1.977 21.616,2.644 33,2 -11.154,0.995 -22.488,1.328 -34,1 -0.237,-1.291 0.096,-2.291 1,-3 z"
       id="path61" />
  </g>
  <g
     id="g62"
     transform="translate(-50.727241,-385.67458)">
    <path
       style="opacity:1"
       fill="#134288"
       d="m 319.5,471.5 c -1.99,9.608 -3.657,19.275 -5,29 -0.904,0.709 -1.237,1.709 -1,3 15.703,-0.651 31.036,0.016 46,2 0.237,1.291 -0.096,2.291 -1,3 0,-1.333 0,-2.667 0,-4 -15.333,0 -30.667,0 -46,0 1.712,-10.981 3.045,-21.981 4,-33 1,0 2,0 3,0 z"
       id="path62" />
  </g>
  <g
     id="g63"
     transform="translate(-50.727241,-385.67458)">
    <path
       style="opacity:1"
       fill="#3c6598"
       d="m 572.5,503.5 c 17.346,-0.333 34.679,0 52,1 -0.124,0.607 -0.457,0.94 -1,1 -17,-0.667 -34,-1.333 -51,-2 z"
       id="path63" />
  </g>
  <g
     id="g64"
     transform="translate(-50.727241,-385.67458)">
    <path
       style="opacity:1"
       fill="#3b6498"
       d="m 878.5,503.5 c 17.333,0 34.667,0 52,0 0.237,1.291 -0.096,2.291 -1,3 -16.809,-1.662 -33.809,-2.662 -51,-3 z"
       id="path64" />
  </g>
  <g
     id="g65"
     transform="translate(-50.727241,-385.67458)">
    <path
       style="opacity:1"
       fill="#1caacb"
       d="m 135.5,501.5 c -4.712,3.235 -10.045,4.902 -16,5 -2.452,-0.039 -4.452,-0.706 -6,-2 7.59,0.603 14.923,-0.397 22,-3 z"
       id="path65" />
  </g>
  <g
     id="g66"
     transform="translate(-50.727241,-385.67458)">
    <path
       style="opacity:1"
       fill="#a0b9da"
       d="m 655.5,503.5 c 0.09,2.652 -0.576,4.985 -2,7 -0.09,-2.652 0.576,-4.985 2,-7 z"
       id="path66" />
  </g>
  <g
     id="g67"
     transform="translate(-50.727241,-385.67458)">
    <path
       style="opacity:1"
       fill="#184583"
       d="m 294.5,499.5 c 0.055,6.455 -0.612,12.789 -2,19 21.333,0 42.667,0 64,0 -0.38,-2.198 0.287,-3.865 2,-5 -0.65,1.935 -0.983,3.935 -1,6 -22.333,0 -44.667,0 -67,0 0.51,-6.953 1.844,-13.62 4,-20 z"
       id="path67" />
  </g>
  <g
     id="g68"
     transform="translate(-50.727241,-385.67458)">
    <path
       style="opacity:1"
       fill="#1b4582"
       d="m 492.5,497.5 c -1.072,6.893 -2.072,13.893 -3,21 6.423,0.291 12.756,-0.042 19,-1 0,0.667 0,1.333 0,2 -7.084,0.626 -13.75,-0.041 -20,-2 0.51,-6.953 1.844,-13.62 4,-20 z"
       id="path68" />
  </g>
  <g
     id="g69"
     transform="translate(-50.727241,-385.67458)">
    <path
       style="opacity:1"
       fill="#124289"
       d="m 572.5,496.5 c 0,2.333 0,4.667 0,7 17,0.667 34,1.333 51,2 -0.27,4.95 -1.27,9.617 -3,14 -24.024,0.657 -47.69,-0.01 -71,-2 0.51,-4.891 1.51,-9.558 3,-14 -0.497,4.259 0.169,8.259 2,12 -0.667,0.667 -1.333,1.333 -2,2 22.657,1 45.324,1.333 68,1 0.544,-4.173 -0.123,-8.006 -2,-11.5 0.667,-0.333 1.333,-0.667 2,-1 -16.663,-0.5 -33.33,-0.667 -50,-0.5 -0.432,-3.377 0.235,-6.377 2,-9 z"
       id="path69" />
  </g>
  <g
     id="g70"
     transform="translate(-50.727241,-385.67458)">
    <path
       style="opacity:1"
       fill="#1e4682"
       d="m 634.5,507.5 c 0,3.667 0,7.333 0,11 6.292,0.553 12.292,-0.114 18,-2 0.237,1.291 -0.096,2.291 -1,3 -6.755,0.623 -13.088,-0.044 -19,-2 0.049,-3.578 0.715,-6.911 2,-10 z"
       id="path70" />
  </g>
  <g
     id="g71"
     transform="translate(-50.727241,-385.67458)">
    <path
       style="opacity:1"
       fill="#1c4584"
       d="m 719.5,511.5 c -0.888,2.554 -1.221,5.221 -1,8 -10.006,0.166 -20.006,0 -30,-0.5 -0.556,-0.383 -0.889,-0.883 -1,-1.5 9.948,0.95 19.948,1.284 30,1 -0.51,-2.888 0.156,-5.221 2,-7 z"
       id="path71" />
  </g>
  <g
     id="g72"
     transform="translate(-50.727241,-385.67458)">
    <path
       style="opacity:1"
       fill="#124283"
       d="m 763.5,506.5 c 0.105,4.048 -0.228,8.048 -1,12 20.336,0.167 40.669,0 61,-0.5 2.978,-0.696 5.978,-1.196 9,-1.5 -3.083,1.493 -6.417,2.493 -10,3 -20.333,0 -40.667,0 -61,0 0,-1.333 0,-2.667 0,-4 0.176,-3.227 0.843,-6.227 2,-9 z"
       id="path72" />
  </g>
  <g
     id="g73"
     transform="translate(-50.727241,-385.67458)">
    <path
       style="opacity:1"
       fill="#395b96"
       d="m 858.5,505.5 c -0.086,4.357 -0.42,8.69 -1,13 22.667,0 45.333,0 68,0 -0.318,-2.981 0.682,-5.315 3,-7 -0.659,2.955 -0.992,5.955 -1,9 -24,0 -48,0 -72,0 0.382,-5.244 1.382,-10.244 3,-15 z"
       id="path73" />
  </g>
  <g
     id="g74"
     transform="translate(-50.727241,-385.67458)">
    <path
       style="opacity:1"
       fill="#375799"
       d="m 380.5,518.5 c 17.012,0.929 34.012,0.929 51,0 -2.24,0.764 -4.573,1.598 -7,2.5 -12.333,0.667 -24.667,0.667 -37,0 -2.604,-0.39 -4.938,-1.224 -7,-2.5 z"
       id="path74" />
  </g>
  <g
     id="g75"
     transform="translate(-50.727241,-385.67458)">
    <path
       style="opacity:1"
       fill="#88a2bf"
       d="m 488.5,517.5 c 6.25,1.959 12.916,2.626 20,2 -6.813,0.991 -13.813,1.325 -21,1 -0.237,-1.291 0.096,-2.291 1,-3 z"
       id="path75" />
  </g>
  <g
     id="g76"
     transform="translate(-50.727241,-385.67458)">
    <path
       style="opacity:1"
       fill="#7997ba"
       d="m 549.5,517.5 c 23.31,1.99 46.976,2.657 71,2 -23.828,0.998 -47.828,1.331 -72,1 -0.237,-1.291 0.096,-2.291 1,-3 z"
       id="path76" />
  </g>
  <g
     id="g77"
     transform="translate(-50.727241,-385.67458)">
    <path
       style="opacity:1"
       fill="#95acc9"
       d="m 632.5,517.5 c 5.912,1.956 12.245,2.623 19,2 -6.479,0.991 -13.146,1.324 -20,1 -0.237,-1.291 0.096,-2.291 1,-3 z"
       id="path77" />
  </g>
  <g
     id="g78"
     transform="translate(-50.727241,-385.67458)">
    <path
       style="opacity:1"
       fill="#8ea8c7"
       d="m 761.5,515.5 c 0,1.333 0,2.667 0,4 20.333,0 40.667,0 61,0 -20.493,0.997 -41.16,1.331 -62,1 -0.284,-1.915 0.049,-3.581 1,-5 z"
       id="path78" />
  </g>
  <g
     id="g79"
     transform="translate(-50.727241,-385.67458)">
    <path
       style="opacity:1"
       fill="#0b4995"
       d="m 204.5,520.5 c 2.909,3.481 5.575,7.148 8,11 -1.542,-0.801 -3.208,-1.134 -5,-1 0.157,-1.373 -0.01,-2.707 -0.5,-4 -3.062,0.784 -5.562,2.451 -7.5,5 -0.758,-1.311 -1.758,-1.811 -3,-1.5 -1.711,1.133 -2.211,2.633 -1.5,4.5 0.308,-0.808 0.808,-1.475 1.5,-2 2.261,2.034 4.928,3.2 8,3.5 -4.251,1.378 -8.251,1.212 -12,-0.5 -2.375,3.042 -5.042,5.709 -8,8 4.283,-6.123 8.783,-12.123 13.5,-18 1.777,-2.29 3.944,-3.957 6.5,-5 z"
       id="path79" />
  </g>
  <g
     id="g80"
     transform="translate(-50.727241,-385.67458)">
    <path
       style="opacity:1"
       fill="#577593"
       d="m 577.5,527.5 c 5.475,-0.989 11.142,-1.322 17,-1 0.237,1.291 -0.096,2.291 -1,3 -4.896,-1.946 -10.229,-2.613 -16,-2 z"
       id="path80" />
  </g>
  <g
     id="g81"
     transform="translate(-50.727241,-385.67458)">
    <path
       style="opacity:1"
       fill="#def9f9"
       d="m 79.5,437.5 c 0,12 0,24 0,36 -0.1667,34.668 0,69.335 0.5,104 3.1878,6.686 7.3545,12.686 12.5,18 -2.4908,-0.329 -4.6575,-1.329 -6.5,-3 -3.2261,-4.743 -5.8928,-9.743 -8,-15 -0.8983,-46.844 -0.3983,-93.511 1.5,-140 z"
       id="path81" />
  </g>
  <g
     id="g82"
     transform="translate(-50.727241,-385.67458)">
    <path
       style="opacity:1"
       fill="#5880af"
       d="m 577.5,527.5 c -0.065,2.928 -0.732,5.595 -2,8 -0.206,-2.995 0.46,-5.662 2,-8 z"
       id="path82" />
  </g>
  <g
     id="g83"
     transform="translate(-50.727241,-385.67458)">
    <path
       style="opacity:1"
       fill="#02469f"
       d="m 212.5,531.5 c 0.531,2.044 1.698,3.711 3.5,5 -1.609,5.558 0.224,9.558 5.5,12 1.196,-0.346 1.196,-0.846 0,-1.5 0.948,-0.483 1.948,-0.649 3,-0.5 -0.845,4.866 1.488,7.533 7,8 1.688,3.079 3.021,6.412 4,10 -1.667,0 -3.333,0 -5,0 0,1 0,2 0,3 2.458,1.123 4.625,1.123 6.5,0 1.405,1.691 2.572,3.524 3.5,5.5 1.601,0.273 3.101,0.773 4.5,1.5 -0.768,2.318 0.066,4.151 2.5,5.5 -0.643,2.746 -0.976,5.579 -1,8.5 0.022,3.09 0.688,5.757 2,8 0,1 0,2 0,3 -1.967,-0.239 -3.801,0.094 -5.5,1 -0.684,1.284 -0.517,2.451 0.5,3.5 -1,0.333 -2,0.667 -3,1 0.752,0.671 1.086,1.504 1,2.5 -0.333,0 -0.667,0 -1,0 -7.986,2.231 -15.32,1.064 -22,-3.5 5.38,-2.167 5.047,-3.501 -1,-4 -1.782,-0.814 -3.282,-1.981 -4.5,-3.5 -0.388,0.928 -1.055,1.595 -2,2 -1.138,-0.489 -2.305,-0.822 -3.5,-1 -10.358,-6.51 -20.358,-13.51 -30,-21 0,-1.333 0,-2.667 0,-4 -4.551,0.131 -7.884,-1.869 -10,-6 1.452,-1.44 2.452,-3.106 3,-5 4.186,-6.371 8.853,-12.371 14,-18 2.958,-2.291 5.625,-4.958 8,-8 3.749,1.712 7.749,1.878 12,0.5 -3.072,-0.3 -5.739,-1.466 -8,-3.5 -0.692,0.525 -1.192,1.192 -1.5,2 -0.711,-1.867 -0.211,-3.367 1.5,-4.5 1.242,-0.311 2.242,0.189 3,1.5 1.938,-2.549 4.438,-4.216 7.5,-5 0.49,1.293 0.657,2.627 0.5,4 1.792,-0.134 3.458,0.199 5,1 z"
       id="path83" />
  </g>
  <g
     id="g84"
     transform="translate(-50.727241,-385.67458)">
    <path
       style="opacity:1"
       fill="#074596"
       d="m 577.5,527.5 c 5.771,-0.613 11.104,0.054 16,2 -0.351,3.403 -1.018,6.737 -2,10 -5.771,0.613 -11.104,-0.054 -16,-2 0,-0.667 0,-1.333 0,-2 1.268,-2.405 1.935,-5.072 2,-8 z"
       id="path84" />
  </g>
  <g
     id="g85"
     transform="translate(-50.727241,-385.67458)">
    <path
       style="opacity:1"
       fill="#2f5987"
       d="m 575.5,537.5 c 4.896,1.946 10.229,2.613 16,2 -5.475,0.989 -11.142,1.322 -17,1 -0.237,-1.291 0.096,-2.291 1,-3 z"
       id="path85" />
  </g>
  <g
     id="g86"
     transform="translate(-50.727241,-385.67458)">
    <path
       style="opacity:1"
       fill="#124792"
       d="m 212.5,531.5 c 6.681,7.351 13.014,15.017 19,23 -5.512,-0.467 -7.845,-3.134 -7,-8 -1.052,-0.149 -2.052,0.017 -3,0.5 1.196,0.654 1.196,1.154 0,1.5 -5.276,-2.442 -7.109,-6.442 -5.5,-12 -1.802,-1.289 -2.969,-2.956 -3.5,-5 z"
       id="path86" />
  </g>
  <g
     id="g87"
     transform="translate(-50.727241,-385.67458)">
    <path
       style="opacity:1"
       fill="#d1f8f7"
       d="m 812.5,566.5 c 0,-0.333 0,-0.667 0,-1 1.285,-3.089 1.951,-6.422 2,-10 -17.667,0 -35.333,0 -53,0 0.418,-0.722 1.084,-1.222 2,-1.5 17.664,-0.5 35.33,-0.667 53,-0.5 0.924,3.951 0.258,7.785 -2,11.5 1.274,2.542 0.607,3.042 -2,1.5 z"
       id="path87" />
  </g>
  <g
     id="g88"
     transform="translate(-50.727241,-385.67458)">
    <path
       style="opacity:1"
       fill="#aceff0"
       d="m 573.5,555.5 c 3.798,-0.983 7.798,-1.317 12,-1 0.295,2.235 -0.039,4.235 -1,6 0,-1.667 0,-3.333 0,-5 -3.667,0 -7.333,0 -11,0 z"
       id="path88" />
  </g>
  <g
     id="g89"
     transform="translate(-50.727241,-385.67458)">
    <path
       style="opacity:1"
       fill="#22c3cb"
       d="m 548.5,565.5 c -0.416,4.993 -0.749,9.993 -1,15 0,0.333 0,0.667 0,1 -1.389,4.769 -2.056,9.769 -2,15 -4,0 -8,0 -12,0 0.662,-3.966 0.995,-7.966 1,-12 0,-1.333 0,-2.667 0,-4 1.798,-3.719 2.298,-7.719 1.5,-12 -0.833,-0.833 -1.667,-1.667 -2.5,-2.5 -8.994,-0.5 -17.994,-0.666 -27,-0.5 -1.172,10.041 -2.672,20.041 -4.5,30 -3.394,0.956 -6.894,1.289 -10.5,1 0.416,-4.993 0.749,-9.993 1,-15 0,-0.333 0,-0.667 0,-1 1.639,-8.173 2.972,-16.506 4,-25 13.827,-1.161 27.827,-1.327 42,-0.5 4.212,2.711 7.546,6.211 10,10.5 z"
       id="path89" />
  </g>
  <g
     id="g90"
     transform="translate(-50.727241,-385.67458)">
    <path
       style="opacity:1"
       fill="#1fc3cd"
       d="m 463.5,596.5 c -15.67,0.167 -31.337,0 -47,-0.5 -0.964,-4.066 -1.297,-8.233 -1,-12.5 1.299,-8.563 2.799,-17.23 4.5,-26 0.833,-0.833 1.667,-1.667 2.5,-2.5 13.667,-0.667 27.333,-0.667 41,0 4.666,3.528 7.666,8.028 9,13.5 -1.411,7.623 -2.578,15.29 -3.5,23 -1.055,2.556 -2.888,4.223 -5.5,5 z"
       id="path90" />
  </g>
  <g
     id="g91"
     transform="translate(-50.727241,-385.67458)">
    <path
       style="opacity:1"
       fill="#0d4693"
       d="m 231.5,554.5 c 6.05,6.422 11.383,13.422 16,21 1.41,4.371 2.743,8.704 4,13 0.427,3.326 -0.573,5.992 -3,8 -1.312,-2.243 -1.978,-4.91 -2,-8 0.024,-2.921 0.357,-5.754 1,-8.5 -2.434,-1.349 -3.268,-3.182 -2.5,-5.5 -1.399,-0.727 -2.899,-1.227 -4.5,-1.5 -0.928,-1.976 -2.095,-3.809 -3.5,-5.5 -1.875,1.123 -4.042,1.123 -6.5,0 0,-1 0,-2 0,-3 1.667,0 3.333,0 5,0 -0.979,-3.588 -2.312,-6.921 -4,-10 z"
       id="path91" />
  </g>
  <g
     id="g92"
     transform="translate(-50.727241,-385.67458)">
    <path
       style="opacity:1"
       fill="#1cc1ca"
       d="m 661.5,557.5 c -2.304,11.485 -4.304,23.152 -6,35 0,1.333 0,2.667 0,4 -3.667,0 -7.333,0 -11,0 0,-2.667 0,-5.333 0,-8 1.588,-11.048 3.255,-22.048 5,-33 4.471,-0.589 8.471,0.077 12,2 z"
       id="path92" />
  </g>
  <g
     id="g93"
     transform="translate(-50.727241,-385.67458)">
    <path
       style="opacity:1"
       fill="#b7f2f3"
       d="m 661.5,557.5 c -0.954,11.393 -2.454,22.726 -4.5,34 -0.383,0.556 -0.883,0.889 -1.5,1 1.696,-11.848 3.696,-23.515 6,-35 z"
       id="path93" />
  </g>
  <g
     id="g94"
     transform="translate(-50.727241,-385.67458)">
    <path
       style="opacity:1"
       fill="#104c91"
       d="m 170.5,561.5 c -0.548,1.894 -1.548,3.56 -3,5 2.116,4.131 5.449,6.131 10,6 0,1.333 0,2.667 0,4 -4,-2.333 -8,-4.667 -12,-7 0.02,-3.323 1.687,-5.989 5,-8 z"
       id="path94" />
  </g>
  <g
     id="g95"
     transform="translate(-50.727241,-385.67458)">
    <path
       style="opacity:1"
       fill="#fcfdfb"
       d="m 458.5,567.5 c 0.957,4.17 0.957,8.503 0,13 -1.604,0.787 -2.271,2.12 -2,4 -8.333,0 -16.667,0 -25,0 -0.182,-5.294 -0.682,-5.294 -1.5,0 -0.16,-5.911 0.34,-11.744 1.5,-17.5 9.048,-0.777 18.048,-0.611 27,0.5 z"
       id="path95" />
  </g>
  <g
     id="g96"
     transform="translate(-50.727241,-385.67458)">
    <path
       style="opacity:1"
       fill="#ccfafb"
       d="m 496.5,555.5 c -1.028,8.494 -2.361,16.827 -4,25 -0.787,-8.811 0.546,-17.144 4,-25 z"
       id="path96" />
  </g>
  <g
     id="g97"
     transform="translate(-50.727241,-385.67458)">
    <path
       style="opacity:1"
       fill="#20c3cc"
       d="m 736.5,566.5 c -1.768,9.94 -3.101,19.94 -4,30 -3.667,0 -7.333,0 -11,0 0.297,-8.247 1.297,-16.413 3,-24.5 0.193,-2.008 -0.474,-3.508 -2,-4.5 -0.111,-0.617 -0.444,-1.117 -1,-1.5 -8.994,-0.5 -17.994,-0.666 -27,-0.5 -1.985,9.912 -3.319,19.912 -4,30 0,0.667 -0.333,1 -1,1 -3.667,0 -7.333,0 -11,0 0,-1.667 0,-3.333 0,-5 2.2,-12.163 4.2,-24.33 6,-36.5 14,-0.667 28,-0.667 42,0 3.916,3.41 7.249,7.243 10,11.5 z"
       id="path97" />
  </g>
  <g
     id="g98"
     transform="translate(-50.727241,-385.67458)">
    <path
       style="opacity:1"
       fill="#baf6f6"
       d="m 722.5,567.5 c -8.947,-0.944 -17.947,-1.278 -27,-1 -1.363,9.846 -3.029,19.513 -5,29 0.681,-10.088 2.015,-20.088 4,-30 9.006,-0.166 18.006,0 27,0.5 0.556,0.383 0.889,0.883 1,1.5 z"
       id="path98" />
  </g>
  <g
     id="g99"
     transform="translate(-50.727241,-385.67458)">
    <path
       style="opacity:1"
       fill="#c3f5f7"
       d="m 812.5,565.5 c 0,0.333 0,0.667 0,1 -13.667,0 -27.333,0 -41,0 0,1.333 0,2.667 0,4 13.51,-0.329 26.844,0.004 40,1 -13.667,0 -27.333,0 -41,0 0,-2 0,-4 0,-6 14,0 28,0 42,0 z"
       id="path99" />
  </g>
  <g
     id="g100"
     transform="translate(-50.727241,-385.67458)">
    <path
       style="opacity:1"
       fill="#baf5f6"
       d="m 548.5,565.5 c 0.661,1.634 0.994,3.467 1,5.5 0.079,3.451 -0.587,6.618 -2,9.5 0.251,-5.007 0.584,-10.007 1,-15 z"
       id="path100" />
  </g>
  <g
     id="g101"
     transform="translate(-50.727241,-385.67458)">
    <path
       style="opacity:1"
       fill="#e2fefe"
       d="m 458.5,567.5 c -8.952,-1.111 -17.952,-1.277 -27,-0.5 -1.16,5.756 -1.66,11.589 -1.5,17.5 0.818,-5.294 1.318,-5.294 1.5,0 8.333,0 16.667,0 25,0 -0.271,-1.88 0.396,-3.213 2,-4 -0.129,1.716 -0.462,3.383 -1,5 -9.667,0 -19.333,0 -29,0 0,-2.333 0,-4.667 0,-7 0.7,-4.298 1.033,-8.631 1,-13 9.339,-0.166 18.673,0 28,0.5 0.556,0.383 0.889,0.883 1,1.5 z"
       id="path101" />
  </g>
  <g
     id="g102"
     transform="translate(-50.727241,-385.67458)">
    <path
       style="opacity:1"
       fill="#dffdfd"
       d="m 584.5,560.5 c 0.097,8.074 -0.57,16.074 -2,24 13.844,-0.329 27.51,0.004 41,1 -14,0 -28,0 -42,0 0,-1.667 0,-3.333 0,-5 0.59,-6.861 1.59,-13.528 3,-20 z"
       id="path102" />
  </g>
  <g
     id="g103"
     transform="translate(-50.727241,-385.67458)">
    <path
       style="opacity:1"
       fill="#bbfcf9"
       d="m 428.5,578.5 c 0,2.333 0,4.667 0,7 9.667,0 19.333,0 29,0 -9.819,0.994 -19.819,1.327 -30,1 -0.306,-2.885 0.027,-5.552 1,-8 z"
       id="path103" />
  </g>
  <g
     id="g104"
     transform="translate(-50.727241,-385.67458)">
    <path
       style="opacity:1"
       fill="#9af0f0"
       d="m 581.5,580.5 c 0,1.667 0,3.333 0,5 14,0 28,0 42,0 0.295,2.235 -0.039,4.235 -1,6 0,-1.667 0,-3.333 0,-5 -14,0 -28,0 -42,0 -0.295,-2.235 0.039,-4.235 1,-6 z"
       id="path104" />
  </g>
  <g
     id="g105"
     transform="translate(-50.727241,-385.67458)">
    <path
       style="opacity:1"
       fill="#c3fcfa"
       d="m 811.5,577.5 c 0,1.333 0,2.667 0,4 -14,0 -28,0 -42,0 0,1.333 0,2.667 0,4 13.51,-0.329 26.844,0.004 40,1 -14,0 -28,0 -42,0 -0.239,-1.967 0.094,-3.801 1,-5.5 13.996,-0.5 27.996,-0.667 42,-0.5 -0.237,-1.291 0.096,-2.291 1,-3 z"
       id="path105" />
  </g>
  <g
     id="g106"
     transform="translate(-50.727241,-385.67458)">
    <path
       style="opacity:1"
       fill="#21c1cb"
       d="m 761.5,555.5 c 17.667,0 35.333,0 53,0 -0.049,3.578 -0.715,6.911 -2,10 -14,0 -28,0 -42,0 0,2 0,4 0,6 13.667,0 27.333,0 41,0 0,2 0,4 0,6 -0.904,0.709 -1.237,1.709 -1,3 -14.004,-0.167 -28.004,0 -42,0.5 -0.906,1.699 -1.239,3.533 -1,5.5 14,0 28,0 42,0 0.304,3.715 -0.363,7.215 -2,10.5 -16.667,0.667 -33.333,0.667 -50,0 -0.5,-0.5 -1,-1 -1.5,-1.5 -0.667,-4.333 -0.667,-8.667 0,-13 2.171,-8.195 3.504,-16.528 4,-25 0.717,-0.544 1.217,-1.211 1.5,-2 z"
       id="path106" />
  </g>
  <g
     id="g107"
     transform="translate(-50.727241,-385.67458)">
    <path
       style="opacity:1"
       fill="#26c4cc"
       d="m 573.5,555.5 c 3.667,0 7.333,0 11,0 0,1.667 0,3.333 0,5 -1.41,6.472 -2.41,13.139 -3,20 -0.961,1.765 -1.295,3.765 -1,6 14,0 28,0 42,0 0,1.667 0,3.333 0,5 0.143,1.762 -0.191,3.429 -1,5 -17.324,1.166 -34.657,1.333 -52,0.5 -1.545,-1.822 -2.212,-3.989 -2,-6.5 2.129,-11.78 4.129,-23.447 6,-35 z"
       id="path107" />
  </g>
  <g
     id="g108"
     transform="translate(-50.727241,-385.67458)">
    <path
       style="opacity:1"
       fill="#d5faf9"
       d="m 736.5,566.5 c 0.658,1.293 0.992,2.793 1,4.5 -2.096,8.675 -3.263,17.509 -3.5,26.5 -5.072,0.971 -10.238,1.305 -15.5,1 0.206,-3.895 0.873,-7.729 2,-11.5 -0.866,-4.82 -1.033,-9.653 -0.5,-14.5 0.119,3.425 0.619,6.091 1.5,8 0.939,-4.265 1.272,-8.598 1,-13 1.526,0.992 2.193,2.492 2,4.5 -1.703,8.087 -2.703,16.253 -3,24.5 3.667,0 7.333,0 11,0 0.899,-10.06 2.232,-20.06 4,-30 z"
       id="path108" />
  </g>
  <g
     id="g109"
     transform="translate(-50.727241,-385.67458)">
    <path
       style="opacity:1"
       fill="#d8fafa"
       d="m 534.5,580.5 c -0.043,-4.267 -0.377,-8.267 -1,-12 -0.667,0.333 -1.333,0.667 -2,1 -7.761,-2.206 -15.761,-3.206 -24,-3 -0.293,6.238 -0.293,12.405 0,18.5 -1.609,1.525 -2.609,4.025 -3,7.5 0.946,1.758 0.946,3.425 0,5 -4.531,1.311 -9.031,1.311 -13.5,0 -0.742,-5.577 -0.242,-10.91 1.5,-16 -0.251,5.007 -0.584,10.007 -1,15 3.606,0.289 7.106,-0.044 10.5,-1 1.828,-9.959 3.328,-19.959 4.5,-30 9.006,-0.166 18.006,0 27,0.5 0.833,0.833 1.667,1.667 2.5,2.5 0.798,4.281 0.298,8.281 -1.5,12 z"
       id="path109" />
  </g>
  <g
     id="g110"
     transform="translate(-50.727241,-385.67458)">
    <path
       style="opacity:1"
       fill="#a8f3f2"
       d="m 415.5,583.5 c -0.297,4.267 0.036,8.434 1,12.5 15.663,0.5 31.33,0.667 47,0.5 -15.828,1.161 -31.828,1.328 -48,0.5 -2.652,-4.606 -2.652,-9.106 0,-13.5 z"
       id="path110" />
  </g>
  <g
     id="g111"
     transform="translate(-50.727241,-385.67458)">
    <path
       style="opacity:1"
       fill="#94e9e8"
       d="m 644.5,588.5 c 0,2.667 0,5.333 0,8 3.667,0 7.333,0 11,0 -3.798,0.983 -7.798,1.317 -12,1 -0.31,-3.213 0.023,-6.213 1,-9 z"
       id="path111" />
  </g>
  <g
     id="g112"
     transform="translate(-50.727241,-385.67458)">
    <path
       style="opacity:1"
       fill="#9fefef"
       d="m 678.5,591.5 c 0,1.667 0,3.333 0,5 3.667,0 7.333,0 11,0 -3.798,0.983 -7.798,1.317 -12,1 -0.295,-2.235 0.039,-4.235 1,-6 z"
       id="path112" />
  </g>
  <g
     id="g113"
     transform="translate(-50.727241,-385.67458)">
    <path
       style="opacity:1"
       fill="#c4f7f7"
       d="m 547.5,581.5 c 0.432,5.504 -0.235,10.837 -2,16 -4.265,0.939 -8.598,1.272 -13,1 0.032,-4.891 0.699,-9.557 2,-14 -0.005,4.034 -0.338,8.034 -1,12 4,0 8,0 12,0 -0.056,-5.231 0.611,-10.231 2,-15 z"
       id="path113" />
  </g>
  <g
     id="g114"
     transform="translate(-50.727241,-385.67458)">
    <path
       style="opacity:1"
       fill="#1c4b90"
       d="m 240.5,607.5 c -6.111,3.8 -12.444,3.966 -19,0.5 -4.914,-3.277 -9.58,-6.777 -14,-10.5 1.195,0.178 2.362,0.511 3.5,1 0.945,-0.405 1.612,-1.072 2,-2 1.218,1.519 2.718,2.686 4.5,3.5 6.047,0.499 6.38,1.833 1,4 6.68,4.564 14.014,5.731 22,3.5 z"
       id="path114" />
  </g>
  <g
     id="g115"
     transform="translate(-50.727241,-385.67458)">
    <path
       style="opacity:1"
       fill="#194a8b"
       d="m 247.5,575.5 c 1.723,1.753 3.223,3.753 4.5,6 2.804,11.371 -0.696,20.038 -10.5,26 0.086,-0.996 -0.248,-1.829 -1,-2.5 1,-0.333 2,-0.667 3,-1 -1.017,-1.049 -1.184,-2.216 -0.5,-3.5 1.699,-0.906 3.533,-1.239 5.5,-1 0,-1 0,-2 0,-3 2.427,-2.008 3.427,-4.674 3,-8 -1.257,-4.296 -2.59,-8.629 -4,-13 z"
       id="path115" />
  </g>
  <g
     id="g116"
     transform="translate(-50.727241,-385.67458)">
    <path
       style="opacity:1"
       fill="#e9fdfc"
       d="m 156.5,579.5 c 0.528,1.347 0.695,2.681 0.5,4 -8.121,7.084 -13.954,14.417 -17.5,22 -9.089,6.626 -19.089,8.293 -30,5 -0.942,0.108 -1.775,0.441 -2.5,1 -2.13,-2.73 -4.797,-4.73 -8,-6 -1.4498,-2.257 -2.6165,-4.59 -3.5,-7 -1,0 -2,0 -3,0 0,-1 0,-2 0,-3 5.4849,4.643 11.152,9.143 17,13.5 9.433,1.879 18.1,0.212 26,-5 6.899,-8.331 13.899,-16.498 21,-24.5 z"
       id="path116" />
  </g>
</svg>
